<mxfile host="app.diagrams.net" modified="2023-05-30T08:28:07.610Z" agent="Mozilla/5.0 (Windows NT 10.0; Win64; x64) AppleWebKit/537.36 (KHTML, like Gecko) Chrome/108.0.0.0 Safari/537.36" version="21.3.2" etag="JO2JpO0AoqiPTgAhL55r" type="github">
  <diagram name="第 1 页" id="H4HqKj199LtwLVqbe6hy">
    <mxGraphModel>
      <root>
        <mxCell id="0" />
        <mxCell id="1" parent="0" />
      </root>
    </mxGraphModel>
  </diagram>
</mxfile>
